<svg width="40" height="40" viewBox="0 0 40 40" fill="none" xmlns="http://www.w3.org/2000/svg">
<path d="M20 -5.24521e-06C23.9556 -5.24521e-06 27.8224 1.17298 31.1114 3.3706C34.4004 5.56823 36.9638 8.6918 38.4776 12.3463C39.9913 16.0008 40.3874 20.0222 39.6157 23.9018C38.844 27.7814 36.9392 31.3451 34.1421 34.1421C31.3451 36.9392 27.7814 38.844 23.9018 39.6157C20.0222 40.3874 16.0008 39.9913 12.3463 38.4776C8.6918 36.9638 5.56823 34.4004 3.3706 31.1114C1.17298 27.8224 -5.24521e-06 23.9556 -5.24521e-06 20C0.00572824 14.6974 2.11471 9.61368 5.86419 5.86419C9.61368 2.11471 14.6974 0.00572824 20 -5.24521e-06ZM20 36.6667C23.2963 36.6667 26.5187 35.6892 29.2595 33.8578C32.0003 32.0265 34.1365 29.4235 35.398 26.378C36.6594 23.3326 36.9895 19.9815 36.3464 16.7485C35.7033 13.5155 34.116 10.5458 31.7851 8.21488C29.4542 5.884 26.4845 4.29666 23.2515 3.65357C20.0185 3.01048 16.6674 3.34054 13.6219 4.602C10.5765 5.86346 7.97352 7.99967 6.14217 10.7405C4.31081 13.4813 3.33333 16.7036 3.33333 20C3.33818 24.4188 5.09569 28.6552 8.22024 31.7797C11.3448 34.9043 15.5812 36.6618 20 36.6667Z" fill="#28CB8B"/>
<path d="M19.9997 9.31005L27.8447 17.1551L25.4881 19.5117L19.9997 14.0234L14.5114 19.5117L12.1547 17.1551L19.9997 9.31005Z" fill="#28CB8B"/>
<path d="M18.3337 30H21.667V11.6667H18.3337V30Z" fill="#28CB8B"/>
</svg>
