<svg width="43" height="43" viewBox="0 0 43 43" fill="none" xmlns="http://www.w3.org/2000/svg">
<path d="M41.9752 10.9108C41.6772 8.40337 40.5443 6.06905 38.7588 4.28353C36.9732 2.498 34.6389 1.36509 32.1314 1.06709C25.0964 0.237402 17.9883 0.237402 10.9533 1.06709C8.44585 1.36509 6.11153 2.498 4.32601 4.28353C2.54048 6.06905 1.40757 8.40337 1.10957 10.9108C0.279883 17.9458 0.279883 25.054 1.10957 32.089C1.40757 34.5964 2.54048 36.9308 4.32601 38.7163C6.11153 40.5018 8.44585 41.6347 10.9533 41.9327C17.9883 42.7624 25.0964 42.7624 32.1314 41.9327C34.6389 41.6347 36.9732 40.5018 38.7588 38.7163C40.5443 36.9308 41.6772 34.5964 41.9752 32.089C42.8049 25.054 42.8049 17.9458 41.9752 10.9108ZM39.1627 31.7655C38.9462 33.6601 38.0943 35.4254 36.746 36.7738C35.3976 38.1222 33.6322 38.974 31.7377 39.1905C24.9166 39.978 18.0275 39.978 11.2064 39.1905C9.31696 38.9681 7.55811 38.1136 6.21537 36.7658C4.87263 35.4179 4.02483 33.6558 3.80957 31.7655C3.02206 24.9444 3.02206 18.0554 3.80957 11.2343C4.02607 9.33973 4.87793 7.57438 6.2263 6.22601C7.57467 4.87764 9.34002 4.02577 11.2346 3.80928C18.0557 3.02177 24.9447 3.02177 31.7658 3.80928C33.6604 4.02577 35.4257 4.87764 36.7741 6.22601C38.1225 7.57438 38.9743 9.33973 39.1908 11.2343C39.9783 18.0554 39.9783 24.9444 39.1908 31.7655H39.1627Z" fill="#28CB8B"/>
<path d="M21.5 10.25C12.9641 10.25 6.03125 15.2984 6.03125 21.5C6.03125 24.9172 8.07031 28.0531 11.6562 30.1906V34.1562C11.6576 34.4095 11.7272 34.6577 11.8579 34.8746C11.9886 35.0915 12.1754 35.2692 12.3986 35.3887C12.6219 35.5082 12.8733 35.5653 13.1263 35.5538C13.3793 35.5423 13.6244 35.4627 13.8359 35.3234L18.0547 32.5109C19.1947 32.6847 20.347 32.7646 21.5 32.75C30.0359 32.75 36.9688 27.7016 36.9688 21.5C36.9688 15.2984 30.0359 10.25 21.5 10.25ZM21.5 29.9375C20.3488 29.9332 19.2004 29.8249 18.0688 29.6141C17.7076 29.5457 17.3341 29.6214 17.0281 29.825L14.4688 31.5266V29.3609C14.4681 29.1065 14.3984 28.8571 14.2671 28.6392C14.1359 28.4212 13.948 28.243 13.7234 28.1234C10.6156 26.4922 8.84375 24.0734 8.84375 21.5C8.84375 16.8453 14.4688 13.0625 21.5 13.0625C28.5312 13.0625 34.1562 16.8453 34.1562 21.5C34.1562 26.1547 28.5312 29.9375 21.5 29.9375Z" fill="#28CB8B"/>
<path d="M21.5 22.9062C22.2767 22.9062 22.9062 22.2767 22.9062 21.5C22.9062 20.7233 22.2767 20.0938 21.5 20.0938C20.7233 20.0938 20.0938 20.7233 20.0938 21.5C20.0938 22.2767 20.7233 22.9062 21.5 22.9062Z" fill="#28CB8B"/>
<path d="M27.125 22.9062C27.9017 22.9062 28.5312 22.2767 28.5312 21.5C28.5312 20.7233 27.9017 20.0938 27.125 20.0938C26.3483 20.0938 25.7188 20.7233 25.7188 21.5C25.7188 22.2767 26.3483 22.9062 27.125 22.9062Z" fill="#28CB8B"/>
<path d="M15.875 22.9062C16.6517 22.9062 17.2812 22.2767 17.2812 21.5C17.2812 20.7233 16.6517 20.0938 15.875 20.0938C15.0983 20.0938 14.4688 20.7233 14.4688 21.5C14.4688 22.2767 15.0983 22.9062 15.875 22.9062Z" fill="#28CB8B"/>
</svg>
